{"glyphs":{"0":{"ha":628,"x_min":0,"x_max":628,"o":"m 62 369 q 62 541 118 638 q 174 734 314 734 l 314 734 q 453 734 509 638 q 565 541 565 369 l 565 369 q 565 194 509 97 q 453 0 314 0 l 314 0 q 174 0 118 97 q 62 194 62 369 l 62 369 z m 475 369 q 475 456 464 517 q 452 577 417 614 q 381 651 314 651 l 314 651 q 246 651 211 614 q 175 577 164 517 q 152 456 152 369 l 152 369 q 152 279 164 218 q 175 157 211 120 q 246 83 314 83 l 314 83 q 381 83 417 120 q 452 157 464 218 q 475 279 475 369 l 475 369 z"},"1":{"ha":320,"x_min":0,"x_max":320,"o":"m 134 640 l 38 640 l 38 723 l 226 723 l 226 0 l 134 0 l 134 640 z"},"2":{"ha":575,"x_min":0,"x_max":575,"o":"m 51 73 q 178 175 250 241 q 322 306 372 378 q 421 449 421 518 l 421 518 q 421 583 390 621 q 358 658 288 658 l 288 658 q 220 658 183 616 q 145 573 142 502 l 142 502 l 54 502 q 58 614 122 675 q 186 736 287 736 l 287 736 q 390 736 451 679 q 511 622 511 522 l 511 522 q 511 439 462 361 q 412 282 349 223 q 286 163 188 84 l 188 84 l 532 84 l 532 8 l 51 8 l 51 73 z"},"3":{"ha":589,"x_min":0,"x_max":589,"o":"m 60 541 q 67 633 131 685 q 195 737 297 737 l 297 737 q 365 737 415 713 q 464 688 490 646 q 515 604 515 551 l 515 551 q 515 489 480 444 q 444 399 387 386 l 387 386 l 387 381 q 452 365 490 318 q 528 271 528 195 l 528 195 q 528 138 502 93 q 476 47 424 21 q 372 -5 299 -5 l 299 -5 q 193 -5 125 51 q 57 106 49 208 l 49 208 l 137 208 q 144 148 186 110 q 228 72 298 72 l 298 72 q 368 72 405 109 q 441 145 441 203 l 441 203 q 441 278 391 311 q 341 344 240 344 l 240 344 l 217 344 l 217 420 l 241 420 q 333 421 380 451 q 427 480 427 542 l 427 542 q 427 595 393 627 q 358 659 294 659 l 294 659 q 232 659 194 627 q 156 595 149 541 l 149 541 l 60 541 z"},"4":{"ha":629,"x_min":0,"x_max":629,"o":"m 410 161 l 40 161 l 40 230 l 391 716 l 500 716 l 500 240 l 600 240 l 600 161 l 500 161 l 500 0 l 410 0 l 410 161 z m 414 240 l 414 621 l 145 240 l 414 240 z"},"5":{"ha":628,"x_min":0,"x_max":628,"o":"m 523 724 l 523 644 l 172 644 l 172 416 q 195 448 240 469 q 285 489 337 489 l 337 489 q 420 489 472 455 q 524 420 547 366 q 569 311 569 250 l 569 250 q 569 178 542 121 q 515 64 460 31 q 404 -2 322 -2 l 322 -2 q 217 -2 152 52 q 87 106 73 196 l 73 196 l 162 196 q 175 139 217 107 q 259 75 323 75 l 323 75 q 402 75 442 123 q 482 170 482 248 l 482 248 q 482 326 442 369 q 402 411 324 411 l 324 411 q 271 411 232 386 q 192 360 174 316 l 174 316 l 88 316 l 88 724 l 523 724 z"},"6":{"ha":635,"x_min":0,"x_max":635,"o":"m 465 551 q 443 662 328 662 l 328 662 q 239 662 195 594 q 151 525 152 368 l 152 368 q 175 420 229 450 q 282 479 348 479 l 348 479 q 451 479 513 415 q 574 351 574 238 l 574 238 q 574 170 548 116 q 521 62 468 30 q 414 -2 338 -2 l 338 -2 q 235 -2 177 44 q 119 90 96 171 q 73 252 73 371 l 73 371 q 73 738 329 738 l 329 738 q 427 738 483 685 q 539 632 549 551 l 549 551 l 465 551 z m 329 402 q 286 402 248 385 q 210 367 187 332 q 163 296 163 245 l 163 245 q 163 169 207 122 q 251 74 333 74 l 333 74 q 403 74 445 118 q 486 161 486 235 l 486 235 q 486 313 446 358 q 406 402 329 402 l 329 402 z"},"7":{"ha":546,"x_min":0,"x_max":546,"o":"m 507 721 l 507 652 l 229 0 l 137 0 l 419 643 l 33 643 l 33 721 l 507 721 z"},"8":{"ha":631,"x_min":0,"x_max":631,"o":"m 194 376 q 138 398 108 440 q 78 482 78 542 l 78 542 q 78 596 105 640 q 132 683 186 709 q 239 734 315 734 l 315 734 q 391 734 445 709 q 498 683 526 640 q 553 596 553 542 l 553 542 q 553 484 522 441 q 491 397 437 376 l 437 376 q 499 357 536 310 q 572 262 572 195 l 572 195 q 572 130 540 82 q 508 33 450 7 q 391 -20 315 -20 l 315 -20 q 239 -20 182 7 q 124 33 92 82 q 60 130 60 195 l 60 195 q 60 262 96 310 q 132 358 194 376 l 194 376 z m 465 531 q 465 592 425 625 q 385 658 315 658 l 315 658 q 246 658 206 625 q 166 592 166 530 l 166 530 q 166 474 208 440 q 249 406 315 406 l 315 406 q 382 406 424 441 q 465 475 465 531 l 465 531 z m 315 336 q 241 336 194 302 q 147 267 147 198 l 147 198 q 147 134 193 95 q 238 56 315 56 l 315 56 q 392 56 437 95 q 482 134 482 198 l 482 198 q 482 265 436 301 q 390 336 315 336 l 315 336 z"},"9":{"ha":630,"x_min":0,"x_max":630,"o":"m 179 194 q 189 137 226 106 q 262 75 324 75 l 324 75 q 407 75 447 140 q 486 205 484 359 l 484 359 q 463 314 414 289 q 365 263 305 263 l 305 263 q 238 263 186 291 q 133 318 103 371 q 73 424 73 499 l 73 499 q 73 606 135 672 q 197 737 311 737 l 311 737 q 451 737 508 646 q 564 555 564 375 l 564 375 q 564 249 542 167 q 519 85 466 42 q 412 -1 319 -1 l 319 -1 q 217 -1 160 54 q 103 109 95 194 l 95 194 l 179 194 z m 320 340 q 387 340 430 382 q 473 423 473 494 l 473 494 q 473 569 431 615 q 389 661 313 661 l 313 661 q 243 661 202 617 q 160 573 160 501 l 160 501 q 160 428 201 384 q 242 340 320 340 l 320 340 z"}," ":{"ha":267,"x_min":0,"x_max":267,"o":""},"!":{"ha":298,"x_min":0,"x_max":298,"o":"m 97 697 l 195 697 l 184 197 l 108 197 l 97 697 z m 150 -6 q 124 -6 106 12 q 88 30 88 56 l 88 56 q 88 82 106 100 q 124 118 150 118 l 150 118 q 175 118 193 100 q 210 82 210 56 l 210 56 q 210 30 193 12 q 175 -6 150 -6 l 150 -6 z"},"\"":{"ha":292,"x_min":0,"x_max":292,"o":"m 35 796 l 121 796 l 110 597 l 47 597 l 35 796 z m 170 796 l 256 796 l 245 597 l 182 597 l 170 796 z"},"#":{"ha":840,"x_min":0,"x_max":840,"o":"m 785 460 l 629 460 l 591 280 l 729 280 l 729 200 l 574 200 l 531 0 l 444 0 l 487 200 l 277 200 l 234 0 l 147 0 l 190 200 l 33 200 l 33 280 l 207 280 l 245 460 l 90 460 l 90 540 l 262 540 l 305 740 l 392 740 l 349 540 l 559 540 l 602 740 l 689 740 l 646 540 l 785 540 l 785 460 z m 504 280 l 542 460 l 332 460 l 294 280 l 504 280 z"},"$":{"ha":622,"x_min":0,"x_max":622,"o":"m 527 191 q 527 143 503 100 q 479 56 433 27 q 386 -2 321 -6 l 321 -6 l 321 -87 l 267 -87 l 267 -6 q 176 2 119 53 q 62 103 61 181 l 61 181 l 158 181 q 162 139 190 108 q 217 77 267 69 l 267 69 l 267 319 q 200 336 159 354 q 118 372 89 410 q 60 448 60 512 l 60 512 q 60 593 117 646 q 173 699 267 705 l 267 705 l 267 788 l 321 788 l 321 705 q 406 698 458 651 q 510 603 518 527 l 518 527 l 421 527 q 416 562 390 591 q 364 619 321 628 l 321 628 l 321 384 q 387 367 429 350 q 470 332 499 294 q 527 256 527 191 l 527 191 z m 153 517 q 153 468 182 442 q 211 416 267 399 l 267 399 l 267 630 q 215 625 184 597 q 153 568 153 517 l 153 517 z m 321 68 q 375 74 406 107 q 436 140 436 186 l 436 186 q 436 235 406 262 q 376 288 321 304 l 321 304 l 321 68 z"},"%":{"ha":759,"x_min":0,"x_max":759,"o":"m 42 560 q 42 628 83 669 q 124 709 188 709 l 188 709 q 252 709 293 669 q 334 628 334 560 l 334 560 q 334 491 293 451 q 252 410 188 410 l 188 410 q 124 410 83 451 q 42 491 42 560 l 42 560 z m 536 698 l 626 698 l 221 0 l 131 0 l 536 698 z m 188 653 q 154 653 135 630 q 115 606 115 560 l 115 560 q 115 514 135 490 q 154 466 188 466 l 188 466 q 222 466 242 491 q 262 515 262 560 l 262 560 q 262 606 242 630 q 222 653 188 653 l 188 653 z m 425 138 q 425 207 466 248 q 507 288 571 288 l 571 288 q 635 288 676 248 q 716 207 716 138 l 716 138 q 716 70 676 29 q 635 -12 571 -12 l 571 -12 q 507 -12 466 29 q 425 69 425 138 l 425 138 z m 570 231 q 536 231 516 208 q 496 184 496 138 l 496 138 q 496 93 516 70 q 536 46 570 46 l 570 46 q 604 46 624 70 q 644 93 644 138 l 644 138 q 644 184 624 208 q 604 231 570 231 l 570 231 z"},"&":{"ha":739,"x_min":0,"x_max":739,"o":"m 731 0 l 612 0 l 521 92 q 470 39 412 14 q 354 -12 281 -12 l 281 -12 q 209 -12 154 14 q 98 40 68 88 q 37 136 37 200 l 37 200 q 37 273 79 329 q 120 384 201 416 l 201 416 q 169 454 155 486 q 141 518 141 556 l 141 556 q 141 600 164 636 q 186 671 228 691 q 270 711 325 711 l 325 711 q 379 711 419 690 q 459 669 479 632 q 499 594 497 548 l 497 548 l 406 548 q 407 589 383 613 q 359 636 321 636 l 321 636 q 281 636 257 614 q 232 591 232 556 l 232 556 q 232 526 249 498 q 265 470 304 429 l 304 429 l 512 220 l 530 248 l 598 362 l 696 362 l 614 220 q 597 190 574 157 l 574 157 l 731 0 z m 281 66 q 335 66 379 87 q 422 108 461 152 l 461 152 l 256 358 q 128 309 128 203 l 128 203 q 128 144 171 105 q 213 66 281 66 l 281 66 z"},"'":{"ha":159,"x_min":0,"x_max":159,"o":"m 35 796 l 123 796 l 111 597 l 48 597 l 35 796 z"},"(":{"ha":454,"x_min":0,"x_max":454,"o":"m 311 -186 q 215 -92 162 53 q 108 198 108 366 l 108 366 q 108 538 165 688 q 221 837 326 934 l 326 934 l 421 934 l 421 925 q 309 820 253 673 q 196 525 196 366 l 196 366 q 196 211 250 70 q 303 -71 406 -177 l 406 -177 l 406 -186 l 311 -186 z"},")":{"ha":454,"x_min":0,"x_max":454,"o":"m 143 -186 l 48 -186 l 48 -177 q 151 -71 205 70 q 258 211 258 366 l 258 366 q 258 525 202 673 q 145 820 33 925 l 33 925 l 33 934 l 128 934 q 233 837 290 688 q 346 538 346 366 l 346 366 q 346 198 293 53 q 239 -92 143 -186 l 143 -186 z"},"*":{"ha":486,"x_min":0,"x_max":486,"o":"m 265 582 l 387 670 l 423 605 l 284 547 l 424 490 l 386 423 l 265 511 l 281 360 l 206 360 l 221 511 l 100 422 l 61 490 l 200 548 l 61 604 l 98 671 l 222 582 l 206 734 l 282 734 l 265 582 z"},"+":{"ha":683,"x_min":0,"x_max":683,"o":"m 597 404 l 597 327 l 384 327 l 384 111 l 299 111 l 299 327 l 87 327 l 87 404 l 299 404 l 299 621 l 384 621 l 384 404 l 597 404 z"},",":{"ha":198,"x_min":0,"x_max":198,"o":"m 71 126 l 171 126 l 59 -143 l -2 -143 l 71 126 z"},"-":{"ha":551,"x_min":0,"x_max":551,"o":"m 58 405 l 457 405 l 457 328 l 58 328 l 58 405 z"},".":{"ha":210,"x_min":0,"x_max":210,"o":"m 106 -6 q 80 -6 62 12 q 44 30 44 56 l 44 56 q 44 82 62 100 q 80 118 106 118 l 106 118 q 131 118 149 100 q 166 82 166 56 l 166 56 q 166 30 149 12 q 131 -6 106 -6 l 106 -6 z"},"/":{"ha":476,"x_min":0,"x_max":476,"o":"m 326 942 l 417 942 l 143 -170 l 53 -170 l 326 942 z"},":":{"ha":213,"x_min":0,"x_max":213,"o":"m 106 -6 q 80 -6 62 12 q 44 30 44 56 l 44 56 q 44 82 62 100 q 80 118 106 118 l 106 118 q 131 118 149 100 q 166 82 166 56 l 166 56 q 166 30 149 12 q 131 -6 106 -6 l 106 -6 z m 106 422 q 80 422 62 440 q 44 458 44 484 l 44 484 q 44 510 62 528 q 80 546 106 546 l 106 546 q 131 546 149 528 q 166 510 166 484 l 166 484 q 166 458 149 440 q 131 422 106 422 l 106 422 z"},";":{"ha":264,"x_min":0,"x_max":264,"o":"m 130 423 q 104 423 86 441 q 68 459 68 485 l 68 485 q 68 511 86 529 q 104 547 130 547 l 130 547 q 155 547 173 529 q 190 511 190 485 l 190 485 q 190 459 173 441 q 155 423 130 423 l 130 423 z m 96 126 l 196 126 l 84 -143 l 23 -143 l 96 126 z"},"<":{"ha":555,"x_min":0,"x_max":555,"o":"m 440 136 l 325 136 l 84 366 l 325 595 l 440 595 l 198 366 l 440 136 z"},"=":{"ha":723,"x_min":0,"x_max":723,"o":"m 101 512 l 621 512 l 621 435 l 101 435 l 101 512 z m 101 297 l 621 297 l 621 220 l 101 220 l 101 297 z"},">":{"ha":539,"x_min":0,"x_max":539,"o":"m 336 366 l 94 595 l 209 595 l 451 366 l 209 136 l 94 136 l 336 366 z"},"?":{"ha":524,"x_min":0,"x_max":524,"o":"m 255 706 q 354 706 415 650 q 476 594 476 500 l 476 500 q 476 395 411 345 q 346 294 235 294 l 235 294 l 232 199 l 153 199 l 149 357 l 178 357 q 277 357 333 387 q 389 417 389 500 l 389 500 q 389 560 353 595 q 317 630 256 630 l 256 630 q 194 630 159 597 q 123 563 123 505 l 123 505 l 37 505 q 37 565 64 611 q 91 656 141 681 q 190 706 255 706 l 255 706 z m 192 -6 q 166 -6 148 12 q 130 30 130 56 l 130 56 q 130 82 148 100 q 166 118 192 118 l 192 118 q 217 118 235 100 q 252 82 252 56 l 252 56 q 252 30 235 12 q 217 -6 192 -6 l 192 -6 z"},"@":{"ha":1013,"x_min":0,"x_max":1013,"o":"m 577 641 q 688 641 770 599 q 852 557 896 482 q 940 406 940 307 l 940 307 q 940 228 914 156 q 888 83 839 38 q 789 -7 723 -7 l 723 -7 q 673 -7 646 18 q 619 43 615 86 l 615 86 q 584 43 537 18 q 489 -7 436 -7 l 436 -7 q 360 -7 317 40 q 273 86 273 165 l 273 165 q 273 240 305 305 q 336 370 392 410 q 448 449 519 449 l 519 449 q 614 449 647 377 l 647 377 l 658 439 l 737 439 l 687 150 q 684 131 684 115 l 684 115 q 684 55 737 55 l 737 55 q 777 55 807 93 q 836 131 851 189 q 866 246 866 302 l 866 302 q 866 433 788 505 q 709 577 566 577 l 566 577 q 447 577 352 520 q 256 462 202 362 q 148 262 148 141 l 148 141 q 147 9 227 -62 q 307 -134 449 -134 l 449 -134 q 543 -134 615 -100 l 615 -100 l 627 -162 q 538 -199 431 -199 l 431 -199 q 324 -199 243 -158 q 161 -118 117 -42 q 72 33 72 133 l 72 133 q 72 274 137 391 q 202 507 318 574 q 433 641 577 641 l 577 641 z m 463 64 q 508 64 546 91 q 584 117 606 163 q 628 208 628 262 l 628 262 q 628 314 600 347 q 571 379 519 379 l 519 379 q 471 379 435 351 q 398 322 378 276 q 358 229 358 179 l 358 179 q 358 126 385 95 q 412 64 463 64 l 463 64 z"},"A":{"ha":674,"x_min":0,"x_max":674,"o":"m 545 0 l 489 155 l 185 155 l 129 0 l 33 0 l 285 693 l 390 693 l 641 0 l 545 0 z m 211 229 l 463 229 l 337 581 l 211 229 z"},"B":{"ha":613,"x_min":0,"x_max":613,"o":"m 426 359 q 464 353 496 328 q 527 303 546 266 q 564 229 564 187 l 564 187 q 564 134 537 92 q 510 49 459 25 q 407 0 337 0 l 337 0 l 77 0 l 77 697 l 327 697 q 398 697 448 674 q 498 650 523 610 q 548 570 548 520 l 548 520 q 548 458 515 418 q 481 377 426 359 l 426 359 z m 168 622 l 168 396 l 321 396 q 385 396 420 426 q 455 456 455 509 l 455 509 q 455 562 420 592 q 385 622 319 622 l 319 622 l 168 622 z m 329 75 q 397 75 435 107 q 473 139 473 196 l 473 196 q 473 254 433 288 q 393 321 326 321 l 326 321 l 168 321 l 168 75 l 329 75 z"},"C":{"ha":772,"x_min":0,"x_max":772,"o":"m 43 349 q 43 451 89 533 q 135 614 215 660 q 294 706 391 706 l 391 706 q 505 706 590 651 q 675 596 714 495 l 714 495 l 605 495 q 576 558 522 592 q 467 626 391 626 l 391 626 q 318 626 260 592 q 202 558 169 496 q 136 433 136 349 l 136 349 q 136 266 169 204 q 202 141 260 107 q 318 73 391 73 l 391 73 q 467 73 522 107 q 576 140 605 203 l 605 203 l 714 203 q 675 103 590 49 q 505 -6 391 -6 l 391 -6 q 294 -6 215 40 q 135 85 89 166 q 43 247 43 349 l 43 349 z"},"D":{"ha":707,"x_min":0,"x_max":707,"o":"m 294 697 q 408 697 492 655 q 575 612 620 533 q 664 454 664 347 l 664 347 q 664 240 620 162 q 575 83 492 42 q 408 0 294 0 l 294 0 l 77 0 l 77 697 l 294 697 z m 294 75 q 429 75 500 147 q 571 218 571 347 l 571 347 q 571 477 500 550 q 428 623 294 623 l 294 623 l 168 623 l 168 75 l 294 75 z"},"E":{"ha":513,"x_min":0,"x_max":513,"o":"m 452 623 l 168 623 l 168 390 l 422 390 l 422 315 l 168 315 l 168 75 l 452 75 l 452 0 l 77 0 l 77 698 l 452 698 l 452 623 z"},"F":{"ha":504,"x_min":0,"x_max":504,"o":"m 77 697 l 471 697 l 471 623 l 168 623 l 168 388 l 414 388 l 414 314 l 168 314 l 168 0 l 77 0 l 77 697 z"},"G":{"ha":778,"x_min":0,"x_max":778,"o":"m 714 495 l 605 495 q 576 556 521 590 q 466 623 393 623 l 393 623 q 320 623 262 590 q 203 556 170 494 q 136 431 136 349 l 136 349 q 136 267 170 205 q 203 143 262 110 q 320 76 393 76 l 393 76 q 495 76 561 137 q 627 198 638 302 l 638 302 l 360 302 l 360 376 l 735 376 l 735 306 q 727 220 681 149 q 635 77 560 36 q 485 -6 393 -6 l 393 -6 q 296 -6 216 40 q 136 85 90 166 q 43 247 43 349 l 43 349 q 43 451 90 533 q 136 614 216 660 q 296 705 393 705 l 393 705 q 504 705 590 650 q 675 595 714 495 l 714 495 z"},"H":{"ha":692,"x_min":0,"x_max":692,"o":"m 523 697 l 614 697 l 614 0 l 523 0 l 523 316 l 168 316 l 168 0 l 77 0 l 77 697 l 168 697 l 168 391 l 523 391 l 523 697 z"},"I":{"ha":246,"x_min":0,"x_max":246,"o":"m 77 697 l 168 697 l 168 0 l 77 0 l 77 697 z"},"J":{"ha":530,"x_min":0,"x_max":530,"o":"m 336 697 l 428 697 l 428 182 q 428 96 375 45 q 322 -7 235 -7 l 235 -7 q 147 -7 94 46 q 41 98 41 189 l 41 189 l 132 189 q 133 138 159 106 q 184 74 235 74 l 235 74 q 286 74 311 105 q 336 135 336 182 l 336 182 l 336 697 z"},"K":{"ha":599,"x_min":0,"x_max":599,"o":"m 574 0 l 455 0 l 168 318 l 168 0 l 77 0 l 77 697 l 168 697 l 168 374 l 456 697 l 571 697 l 255 348 l 574 0 z"},"L":{"ha":432,"x_min":0,"x_max":432,"o":"m 168 697 l 168 74 l 412 74 l 412 0 l 77 0 l 77 697 l 168 697 z"},"M":{"ha":861,"x_min":0,"x_max":861,"o":"m 687 692 l 784 692 l 784 0 l 693 0 l 693 516 l 463 0 l 399 0 l 168 517 l 168 0 l 77 0 l 77 692 l 175 692 l 431 120 l 687 692 z"},"N":{"ha":703,"x_min":0,"x_max":703,"o":"m 625 698 l 625 0 l 534 0 l 168 555 l 168 0 l 77 0 l 77 698 l 168 698 l 534 144 l 534 698 l 625 698 z"},"O":{"ha":786,"x_min":0,"x_max":786,"o":"m 393 -7 q 296 -7 216 39 q 136 84 90 166 q 43 247 43 349 l 43 349 q 43 451 90 533 q 136 614 216 660 q 296 705 393 705 l 393 705 q 491 705 571 660 q 651 614 697 533 q 743 452 743 349 l 743 349 q 743 246 697 165 q 651 84 571 39 q 491 -7 393 -7 l 393 -7 z m 393 72 q 466 72 525 106 q 583 140 617 203 q 650 266 650 349 l 650 349 q 650 433 617 496 q 583 558 525 592 q 467 626 393 626 l 393 626 q 319 626 261 592 q 203 558 170 496 q 136 433 136 349 l 136 349 q 136 266 170 203 q 203 140 262 106 q 320 72 393 72 l 393 72 z"},"P":{"ha":579,"x_min":0,"x_max":579,"o":"m 543 493 q 543 406 484 349 q 424 291 302 291 l 302 291 l 168 291 l 168 0 l 77 0 l 77 697 l 302 697 q 420 697 482 640 q 543 583 543 493 l 543 493 z m 302 366 q 378 366 414 399 q 450 432 450 493 l 450 493 q 450 622 302 622 l 302 622 l 168 622 l 168 366 l 302 366 z"},"Q":{"ha":788,"x_min":0,"x_max":788,"o":"m 754 -132 l 636 -132 l 497 7 q 446 -7 393 -7 l 393 -7 q 296 -7 216 39 q 136 84 90 166 q 43 247 43 349 l 43 349 q 43 451 90 533 q 136 614 216 660 q 296 705 393 705 l 393 705 q 491 705 571 660 q 651 614 697 533 q 743 452 743 349 l 743 349 q 743 249 699 169 q 655 89 578 43 l 578 43 l 754 -132 z m 136 349 q 136 266 170 203 q 203 140 262 106 q 320 72 393 72 l 393 72 q 466 72 525 106 q 583 140 617 203 q 650 266 650 349 l 650 349 q 650 433 617 496 q 583 558 525 592 q 467 626 393 626 l 393 626 q 319 626 261 592 q 203 558 170 496 q 136 433 136 349 l 136 349 z"},"R":{"ha":608,"x_min":0,"x_max":608,"o":"m 553 0 l 444 0 l 278 285 l 168 285 l 168 0 l 77 0 l 77 697 l 302 697 q 381 697 436 670 q 490 643 517 597 q 544 551 544 492 l 544 492 q 544 420 503 365 q 461 310 378 292 l 378 292 l 553 0 z m 168 622 l 168 358 l 302 358 q 376 358 413 395 q 450 431 450 492 l 450 492 q 450 554 414 588 q 377 622 302 622 l 302 622 l 168 622 z"},"S":{"ha":587,"x_min":0,"x_max":587,"o":"m 298 -7 q 229 -7 175 18 q 120 42 89 86 q 58 129 57 186 l 57 186 l 154 186 q 159 137 195 104 q 230 70 298 70 l 298 70 q 363 70 401 103 q 438 135 438 186 l 438 186 q 438 226 416 251 q 394 276 361 289 q 328 302 272 317 l 272 317 q 203 335 162 353 q 120 371 91 410 q 61 448 61 513 l 61 513 q 61 570 90 614 q 119 658 172 682 q 224 706 292 706 l 292 706 q 390 706 453 657 q 515 608 523 527 l 523 527 l 423 527 q 418 567 381 598 q 344 628 283 628 l 283 628 q 226 628 190 599 q 154 569 154 516 l 154 516 q 154 478 176 454 q 197 430 229 418 q 260 405 317 389 l 317 389 q 386 370 428 352 q 470 333 500 295 q 530 256 530 190 l 530 190 q 530 139 503 94 q 476 49 423 21 q 370 -7 298 -7 l 298 -7 z"},"T":{"ha":541,"x_min":0,"x_max":541,"o":"m 34 697 l 506 697 l 506 623 l 316 623 l 316 0 l 225 0 l 225 623 l 34 623 l 34 697 z"},"U":{"ha":675,"x_min":0,"x_max":675,"o":"m 75 697 l 166 697 l 166 256 q 166 163 212 118 q 257 73 338 73 l 338 73 q 418 73 464 118 q 509 163 509 256 l 509 256 l 509 697 l 600 697 l 600 257 q 600 170 565 111 q 530 51 471 22 q 411 -7 337 -7 l 337 -7 q 263 -7 204 22 q 144 51 110 111 q 75 170 75 257 l 75 257 l 75 697 z"},"V":{"ha":676,"x_min":0,"x_max":676,"o":"m 557 697 l 653 697 l 390 0 l 285 0 l 22 697 l 119 697 l 338 96 l 557 697 z"},"W":{"ha":976,"x_min":0,"x_max":976,"o":"m 855 697 l 953 697 l 751 0 l 649 0 l 487 561 l 319 0 l 218 -1 l 23 697 l 120 697 l 272 106 l 440 697 l 542 697 l 702 108 l 855 697 z"},"X":{"ha":621,"x_min":0,"x_max":621,"o":"m 577 697 l 362 348 l 576 0 l 473 0 l 306 272 l 147 0 l 46 0 l 259 348 l 45 697 l 147 697 l 315 424 l 475 697 l 577 697 z"},"Y":{"ha":584,"x_min":0,"x_max":584,"o":"m 464 697 l 565 697 l 338 263 l 338 0 l 247 0 l 247 263 l 19 697 l 120 697 l 292 344 l 464 697 z"},"Z":{"ha":541,"x_min":0,"x_max":541,"o":"m 492 625 l 154 79 l 494 79 l 494 0 l 46 0 l 46 72 l 384 618 l 50 618 l 50 697 l 492 697 l 492 625 z"},"[":{"ha":423,"x_min":0,"x_max":423,"o":"m 133 934 l 313 934 l 313 859 l 218 859 l 218 -110 l 313 -110 l 313 -186 l 133 -186 l 133 934 z"},"\\":{"ha":658,"x_min":0,"x_max":658,"o":"m 534 -170 l 444 -170 l 131 942 l 221 942 l 534 -170 z"},"]":{"ha":423,"x_min":0,"x_max":423,"o":"m 290 934 l 290 -186 l 110 -186 l 110 -110 l 205 -110 l 205 859 l 110 859 l 110 934 l 290 934 z"},"^":{"ha":629,"x_min":0,"x_max":629,"o":"m 316 581 l 131 169 l 37 169 l 272 693 l 357 693 l 593 169 l 498 169 l 316 581 z"},"_":{"ha":733,"x_min":0,"x_max":733,"o":"m 105 -38 l 637 -38 l 637 -122 l 105 -122 l 105 -38 z"},"`":{"ha":257,"x_min":0,"x_max":257,"o":"m 17 782 l 230 657 l 230 589 l 17 703 l 17 782 z"},"a":{"ha":676,"x_min":0,"x_max":676,"o":"m 43 276 q 43 360 77 424 q 111 487 171 522 q 230 557 303 557 l 303 557 q 375 557 428 526 q 481 495 507 448 l 507 448 l 507 548 l 599 548 l 599 0 l 507 0 l 507 102 q 480 54 427 23 q 373 -9 302 -9 l 302 -9 q 229 -9 170 27 q 111 63 77 128 q 43 193 43 276 l 43 276 z m 507 275 q 507 337 482 383 q 457 429 415 454 q 372 478 321 478 l 321 478 q 270 478 228 454 q 186 430 161 384 q 136 338 136 276 l 136 276 q 136 213 161 167 q 186 120 228 96 q 270 71 321 71 l 321 71 q 372 71 415 96 q 457 120 482 167 q 507 213 507 275 l 507 275 z"},"b":{"ha":676,"x_min":0,"x_max":676,"o":"m 168 446 q 196 495 250 526 q 304 557 373 557 l 373 557 q 447 557 506 522 q 565 487 599 424 q 633 360 633 276 l 633 276 q 633 193 599 128 q 565 63 506 27 q 446 -9 373 -9 l 373 -9 q 302 -9 249 22 q 195 53 168 101 l 168 101 l 168 0 l 77 0 l 77 740 l 168 740 l 168 446 z m 540 276 q 540 338 515 384 q 490 430 448 454 q 405 478 354 478 l 354 478 q 304 478 262 454 q 219 429 194 383 q 168 336 168 275 l 168 275 q 168 213 194 167 q 219 120 262 96 q 304 71 354 71 l 354 71 q 405 71 448 96 q 490 120 515 167 q 540 213 540 276 l 540 276 z"},"c":{"ha":607,"x_min":0,"x_max":607,"o":"m 43 275 q 43 360 77 424 q 111 487 172 522 q 232 557 310 557 l 310 557 q 411 557 477 508 q 542 459 563 372 l 563 372 l 465 372 q 451 422 411 451 q 370 480 310 480 l 310 480 q 232 480 184 427 q 136 373 136 275 l 136 275 q 136 176 184 122 q 232 68 310 68 l 310 68 q 370 68 410 96 q 450 124 465 176 l 465 176 l 563 176 q 541 92 475 42 q 409 -9 310 -9 l 310 -9 q 232 -9 172 26 q 111 61 77 125 q 43 189 43 275 l 43 275 z"},"d":{"ha":676,"x_min":0,"x_max":676,"o":"m 43 276 q 43 360 77 424 q 111 487 171 522 q 230 557 304 557 l 304 557 q 368 557 423 528 q 478 498 507 450 l 507 450 l 507 740 l 599 740 l 599 0 l 507 0 l 507 103 q 480 54 427 23 q 374 -9 303 -9 l 303 -9 q 230 -9 171 27 q 111 63 77 128 q 43 193 43 276 l 43 276 z m 507 275 q 507 337 482 383 q 457 429 415 454 q 372 478 321 478 l 321 478 q 270 478 228 454 q 186 430 161 384 q 136 338 136 276 l 136 276 q 136 213 161 167 q 186 120 228 96 q 270 71 321 71 l 321 71 q 372 71 415 96 q 457 120 482 167 q 507 213 507 275 l 507 275 z"},"e":{"ha":620,"x_min":0,"x_max":620,"o":"m 577 295 q 577 269 574 240 l 574 240 l 136 240 q 141 159 192 114 q 242 68 314 68 l 314 68 q 373 68 413 96 q 452 123 468 169 l 468 169 l 566 169 q 544 90 478 41 q 412 -9 314 -9 l 314 -9 q 236 -9 175 26 q 113 61 78 126 q 43 190 43 275 l 43 275 q 43 360 77 424 q 111 488 173 523 q 234 557 314 557 l 314 557 q 392 557 452 523 q 512 489 545 430 q 577 370 577 295 l 577 295 z m 483 314 q 483 366 460 404 q 437 441 398 461 q 358 480 310 480 l 310 480 q 241 480 193 436 q 144 392 137 314 l 137 314 l 483 314 z"},"f":{"ha":329,"x_min":0,"x_max":329,"o":"m 300 548 l 300 473 l 185 473 l 185 0 l 94 0 l 94 473 l 23 473 l 23 548 l 94 548 l 94 587 q 94 679 142 722 q 189 764 294 764 l 294 764 l 294 688 q 234 688 210 665 q 185 641 185 587 l 185 587 l 185 548 l 300 548 z"},"g":{"ha":676,"x_min":0,"x_max":676,"o":"m 303 557 q 374 557 428 526 q 481 495 507 448 l 507 448 l 507 548 l 599 548 l 599 -12 q 599 -87 567 -145 q 535 -204 476 -237 q 416 -270 337 -270 l 337 -270 q 229 -270 157 -219 q 85 -168 72 -80 l 72 -80 l 162 -80 q 177 -130 224 -160 q 271 -191 337 -191 l 337 -191 q 412 -191 460 -144 q 507 -97 507 -12 l 507 -12 l 507 103 q 480 55 427 23 q 374 -9 303 -9 l 303 -9 q 230 -9 171 27 q 111 63 77 128 q 43 193 43 276 l 43 276 q 43 360 77 424 q 111 487 171 522 q 230 557 303 557 l 303 557 z m 507 275 q 507 337 482 383 q 457 429 415 454 q 372 478 321 478 l 321 478 q 270 478 228 454 q 186 430 161 384 q 136 338 136 276 l 136 276 q 136 213 161 167 q 186 120 228 96 q 270 71 321 71 l 321 71 q 372 71 415 96 q 457 120 482 167 q 507 213 507 275 l 507 275 z"},"h":{"ha":640,"x_min":0,"x_max":640,"o":"m 349 558 q 411 558 461 532 q 511 505 540 452 q 568 399 568 323 l 568 323 l 568 0 l 478 0 l 478 310 q 478 392 437 436 q 396 479 325 479 l 325 479 q 253 479 211 434 q 168 389 168 303 l 168 303 l 168 0 l 77 0 l 77 740 l 168 740 l 168 470 q 195 512 243 535 q 290 558 349 558 l 349 558 z"},"i":{"ha":246,"x_min":0,"x_max":246,"o":"m 124 637 q 98 637 80 655 q 62 673 62 699 l 62 699 q 62 725 80 743 q 98 761 124 761 l 124 761 q 149 761 167 743 q 184 725 184 699 l 184 699 q 184 673 167 655 q 149 637 124 637 l 124 637 z m 77 548 l 168 548 l 168 0 l 77 0 l 77 548 z"},"j":{"ha":248,"x_min":0,"x_max":248,"o":"m 126 637 q 100 637 83 655 q 65 673 65 699 l 65 699 q 65 725 83 743 q 100 761 126 761 l 126 761 q 152 761 170 743 q 187 725 187 699 l 187 699 q 187 673 170 655 q 152 637 126 637 l 126 637 z m 171 548 l 171 -119 q 171 -192 134 -226 q 97 -260 26 -260 l 26 -260 l -27 -260 l -27 -183 l 11 -183 q 49 -183 65 -168 q 80 -153 80 -117 l 80 -117 l 80 548 l 171 548 z"},"k":{"ha":515,"x_min":0,"x_max":515,"o":"m 507 0 l 383 0 l 168 242 l 168 0 l 77 0 l 77 740 l 168 740 l 168 305 l 379 548 l 506 548 l 248 275 l 507 0 z"},"l":{"ha":246,"x_min":0,"x_max":246,"o":"m 77 740 l 168 740 l 168 0 l 77 0 l 77 740 z"},"m":{"ha":1030,"x_min":0,"x_max":1030,"o":"m 736 558 q 800 558 850 532 q 900 505 929 452 q 958 399 958 323 l 958 323 l 958 0 l 868 0 l 868 310 q 868 392 828 436 q 787 479 718 479 l 718 479 q 647 479 605 434 q 563 388 563 302 l 563 302 l 563 0 l 473 0 l 473 310 q 473 392 433 436 q 392 479 323 479 l 323 479 q 252 479 210 434 q 168 388 168 302 l 168 302 l 168 0 l 77 0 l 77 548 l 168 548 l 168 469 q 195 512 241 535 q 286 558 341 558 l 341 558 q 410 558 463 527 q 516 496 542 436 l 542 436 q 565 494 618 526 q 671 558 736 558 l 736 558 z"},"n":{"ha":640,"x_min":0,"x_max":640,"o":"m 344 558 q 444 558 506 498 q 568 437 568 323 l 568 323 l 568 0 l 478 0 l 478 310 q 478 392 437 436 q 396 479 325 479 l 325 479 q 253 479 211 434 q 168 389 168 303 l 168 303 l 168 0 l 77 0 l 77 548 l 168 548 l 168 470 q 195 512 242 535 q 288 558 344 558 l 344 558 z"},"o":{"ha":640,"x_min":0,"x_max":640,"o":"m 316 -9 q 239 -9 177 26 q 114 61 79 126 q 43 190 43 275 l 43 275 q 43 359 80 424 q 116 488 179 523 q 242 557 320 557 l 320 557 q 398 557 461 523 q 524 488 561 424 q 597 360 597 275 l 597 275 q 597 190 560 126 q 522 61 458 26 q 394 -9 316 -9 l 316 -9 z m 316 71 q 365 71 408 94 q 451 117 478 163 q 504 209 504 275 l 504 275 q 504 341 478 387 q 452 433 410 456 q 368 478 319 478 l 319 478 q 269 478 228 456 q 186 433 161 387 q 136 341 136 275 l 136 275 q 136 208 161 162 q 185 116 226 94 q 267 71 316 71 l 316 71 z"},"p":{"ha":676,"x_min":0,"x_max":676,"o":"m 168 447 q 195 494 249 526 q 302 557 373 557 l 373 557 q 446 557 506 522 q 565 487 599 424 q 633 360 633 276 l 633 276 q 633 193 599 128 q 565 63 506 27 q 446 -9 373 -9 l 373 -9 q 303 -9 250 23 q 196 54 168 101 l 168 101 l 168 -260 l 77 -260 l 77 548 l 168 548 l 168 447 z m 540 276 q 540 338 515 384 q 490 430 448 454 q 405 478 354 478 l 354 478 q 304 478 262 454 q 219 429 194 383 q 168 336 168 275 l 168 275 q 168 213 194 167 q 219 120 262 96 q 304 71 354 71 l 354 71 q 405 71 448 96 q 490 120 515 167 q 540 213 540 276 l 540 276 z"},"q":{"ha":676,"x_min":0,"x_max":676,"o":"m 43 276 q 43 360 77 424 q 111 487 171 522 q 230 557 304 557 l 304 557 q 375 557 429 526 q 482 494 507 448 l 507 448 l 507 548 l 599 548 l 599 -260 l 507 -260 l 507 101 q 481 55 427 23 q 373 -9 301 -9 l 301 -9 q 229 -9 170 27 q 111 63 77 128 q 43 193 43 276 l 43 276 z m 507 275 q 507 337 482 383 q 457 429 415 454 q 372 478 321 478 l 321 478 q 270 478 228 454 q 186 430 161 384 q 136 338 136 276 l 136 276 q 136 213 161 167 q 186 120 228 96 q 270 71 321 71 l 321 71 q 372 71 415 96 q 457 120 482 167 q 507 213 507 275 l 507 275 z"},"r":{"ha":373,"x_min":0,"x_max":373,"o":"m 168 459 q 192 506 237 532 q 281 558 345 558 l 345 558 l 345 464 l 321 464 q 168 464 168 298 l 168 298 l 168 0 l 77 0 l 77 548 l 168 548 l 168 459 z"},"s":{"ha":522,"x_min":0,"x_max":522,"o":"m 271 -9 q 208 -9 158 13 q 108 34 79 73 q 50 111 47 161 l 47 161 l 141 161 q 145 120 180 94 q 214 68 270 68 l 270 68 q 322 68 352 91 q 382 114 382 149 l 382 149 q 382 185 350 203 q 318 220 251 237 l 251 237 q 190 253 152 270 q 113 286 86 319 q 58 351 58 404 l 58 404 q 58 446 83 481 q 108 516 154 537 q 200 557 259 557 l 259 557 q 350 557 406 511 q 462 465 466 385 l 466 385 l 375 385 q 372 428 341 454 q 309 480 256 480 l 256 480 q 207 480 178 459 q 149 438 149 404 l 149 404 q 149 377 167 360 q 184 342 211 332 q 237 321 284 308 l 284 308 q 343 292 380 277 q 417 261 444 230 q 470 199 471 149 l 471 149 q 471 104 446 68 q 421 32 376 12 q 330 -9 271 -9 l 271 -9 z"},"t":{"ha":364,"x_min":0,"x_max":364,"o":"m 331 473 l 188 473 l 188 150 q 188 110 205 94 q 222 77 264 77 l 264 77 l 331 77 l 331 0 l 249 0 q 173 0 135 35 q 97 70 97 150 l 97 150 l 97 473 l 26 473 l 26 548 l 97 548 l 97 686 l 188 686 l 188 548 l 331 548 l 331 473 z"},"u":{"ha":640,"x_min":0,"x_max":640,"o":"m 472 548 l 563 548 l 563 0 l 472 0 l 472 81 q 446 39 400 16 q 353 -8 297 -8 l 297 -8 q 233 -8 182 19 q 131 45 102 98 q 72 151 72 227 l 72 227 l 72 548 l 162 548 l 162 239 q 162 158 203 115 q 244 71 315 71 l 315 71 q 388 71 430 116 q 472 161 472 247 l 472 247 l 472 548 z"},"v":{"ha":561,"x_min":0,"x_max":561,"o":"m 110 548 l 281 84 l 451 548 l 548 548 l 333 0 l 227 0 l 12 548 l 110 548 z"},"w":{"ha":820,"x_min":0,"x_max":820,"o":"m 717 548 l 807 548 l 636 0 l 542 0 l 410 435 l 278 0 l 184 0 l 12 548 l 105 548 l 231 88 l 367 548 l 460 548 l 593 87 l 717 548 z"},"x":{"ha":479,"x_min":0,"x_max":479,"o":"m 466 0 l 363 0 l 233 204 l 108 0 l 13 0 l 190 272 l 13 548 l 116 548 l 246 345 l 370 548 l 465 548 l 289 277 l 466 0 z"},"y":{"ha":563,"x_min":0,"x_max":563,"o":"m 455 548 l 549 548 l 219 -258 l 125 -258 l 233 6 l 12 548 l 113 548 l 285 104 l 455 548 z"},"z":{"ha":455,"x_min":0,"x_max":455,"o":"m 412 474 l 145 75 l 414 75 l 414 0 l 41 0 l 41 75 l 307 474 l 43 474 l 43 548 l 412 548 l 412 474 z"},"{":{"ha":462,"x_min":0,"x_max":462,"o":"m 105 338 l 105 409 q 207 428 207 514 l 207 514 q 207 552 197 644 l 197 644 q 187 742 187 786 l 187 786 q 187 858 228 896 q 268 934 336 934 l 336 934 l 394 934 l 394 855 l 353 855 q 314 855 295 838 q 276 820 276 780 l 276 780 q 276 751 280 709 q 284 666 285 651 l 285 651 q 295 555 295 511 l 295 511 q 295 458 269 423 q 242 387 187 375 l 187 375 l 187 373 q 242 361 269 325 q 295 289 295 236 l 295 236 q 295 192 285 96 l 285 96 q 284 81 280 39 q 276 -4 276 -33 l 276 -33 q 276 -73 295 -90 q 314 -108 353 -108 l 353 -108 l 394 -108 l 394 -187 l 336 -187 q 268 -187 228 -149 q 187 -111 187 -39 l 187 -39 q 187 5 197 103 l 197 103 q 207 195 207 233 l 207 233 q 207 319 105 338 l 105 338 z"},"|":{"ha":291,"x_min":0,"x_max":291,"o":"m 191 795 l 191 -106 l 100 -106 l 100 795 l 191 795 z"},"}":{"ha":462,"x_min":0,"x_max":462,"o":"m 357 338 q 255 319 255 233 l 255 233 q 255 195 265 103 l 265 103 q 275 5 275 -39 l 275 -39 q 275 -111 235 -149 q 194 -187 126 -187 l 126 -187 l 68 -187 l 68 -108 l 109 -108 q 148 -108 167 -90 q 186 -73 186 -33 l 186 -33 q 186 -4 182 39 q 178 81 177 96 l 177 96 q 167 192 167 236 l 167 236 q 167 289 194 325 q 220 361 275 373 l 275 373 l 275 375 q 220 387 194 423 q 167 458 167 511 l 167 511 q 167 555 177 651 l 177 651 q 178 666 182 709 q 186 751 186 780 l 186 780 q 186 820 167 838 q 148 855 109 855 l 109 855 l 68 855 l 68 934 l 126 934 q 194 934 235 896 q 275 858 275 786 l 275 786 q 275 742 265 644 l 265 644 q 255 552 255 514 l 255 514 q 255 428 357 409 l 357 409 l 357 338 z"},"~":{"ha":519,"x_min":0,"x_max":519,"o":"m 37 248 q 63 394 178 394 l 178 394 q 205 394 227 385 q 248 375 275 357 l 275 357 q 299 342 315 335 q 330 328 347 328 l 347 328 q 373 328 392 346 q 410 363 414 393 l 414 393 l 482 393 q 457 247 340 247 l 340 247 q 314 247 294 256 q 274 265 245 283 l 245 283 q 221 298 206 306 q 191 313 172 313 l 172 313 q 146 313 127 296 q 108 278 104 248 l 104 248 l 37 248 z"}}}
